{
  "accessors": [
    {
      "bufferView": 0,
      "componentType": 5125,
      "count": 36,
      "max": [
        35
      ],
      "min": [
        0
      ],
      "type": "SCALAR"
    },
    {
      "bufferView": 1,
      "componentType": 5126,
      "count": 36,
      "max": [
        0.7071067690849304,
        1.7071068286895752,
        0.5
      ],
      "min": [
        -0.7071067690849304,
        0.2928932309150696,
        -0.5
      ],
      "type": "VEC3"
    },
    {
      "bufferView": 1,
      "byteOffset": 12,
      "componentType": 5126,
      "count": 36,
      "max": [
        0.7071067690849304,
        0.7071067690849304,
        1.0
      ],
      "min": [
        -0.7071067690849304,
        -0.7071067690849304,
        -1.0
      ],
      "type": "VEC3"
    },
    {
      "bufferView": 1,
      "byteOffset": 24,
      "componentType": 5126,
      "count": 36,
      "max": [
        0.9974939823150635,
        0.9974939823150635
      ],
      "min": [
        0.002609000075608492,
        0.002609000075608492
      ],
      "type": "VEC2"
    },
    {
      "bufferView": 2,
      "componentType": 5125,
      "count": 36,
      "max": [
        35
      ],
      "min": [
        0
      ],
      "type": "SCALAR"
    },
    {
      "bufferView": 3,
      "componentType": 5126,
      "count": 36,
      "max": [
        0.5,
        0.5,
        0.5
      ],
      "min": [
        -0.5,
        -0.5,
        -0.5
      ],
      "type": "VEC3"
    },
    {
      "bufferView": 3,
      "byteOffset": 12,
      "componentType": 5126,
      "count": 36,
      "max": [
        1.0,
        1.0,
        1.0
      ],
      "min": [
        -1.0,
        -1.0,
        -1.0
      ],
      "type": "VEC3"
    },
    {
      "bufferView": 3,
      "byteOffset": 24,
      "componentType": 5126,
      "count": 36,
      "max": [
        0.9974939823150635,
        0.9974939823150635
      ],
      "min": [
        0.002609000075608492,
        0.002609000075608492
      ],
      "type": "VEC2"
    }
  ],
  "asset": {
    "generator": "tinygltf",
    "version": "2.0"
  },
  "bufferViews": [
    {
      "buffer": 0,
      "byteLength": 144,
      "target": 34963
    },
    {
      "buffer": 0,
      "byteLength": 1152,
      "byteOffset": 144,
      "byteStride": 32,
      "target": 34962
    },
    {
      "buffer": 1,
      "byteLength": 144,
      "target": 34963
    },
    {
      "buffer": 1,
      "byteLength": 1152,
      "byteOffset": 144,
      "byteStride": 32,
      "target": 34962
    }
  ],
  "buffers": [
    {
      "byteLength": 1296,
      "uri": "data:application/octet-stream;base64,"
    },
    {
      "byteLength": 1296,
      "uri": "data:application/octet-stream;base64,"
    }
  ],
  "images": [
    {
      "uri": "testTexture.png"
    }
  ],
  "materials": [
    {
      "pbrMetallicRoughness": {
        "baseColorTexture": {
          "extensions": {
            "KHR_texture_transform": {
              "offset": [
                0.0,
                0.0
              ],
              "scale": [
                1.0,
                1.0
              ]
            }
          },
          "index": 0
        },
        "metallicFactor": 0.0
      }
    },
    {
      "pbrMetallicRoughness": {
        "baseColorTexture": {
          "extensions": {
            "KHR_texture_transform": {
              "offset": [
                0.0,
                0.0
              ],
              "scale": [
                1.0,
                1.0
              ]
            }
          },
          "index": 0
        },
        "metallicFactor": 0.8399999737739563,
        "roughnessFactor": 0.23000000417232513
      }
    }
  ],
  "meshes": [
    {
      "primitives": [
        {
          "attributes": {
            "NORMAL": 2,
            "POSITION": 1,
            "TEXCOORD_0": 3
          },
          "indices": 0,
          "material": 0,
          "mode": 4
        }
      ]
    },
    {
      "primitives": [
        {
          "attributes": {
            "NORMAL": 2,
            "POSITION": 1,
            "TEXCOORD_0": 3
          },
          "indices": 0,
          "material": 0,
          "mode": 4
        },
        {
          "attributes": {
            "NORMAL": 6,
            "POSITION": 5,
            "TEXCOORD_0": 7
          },
          "indices": 4,
          "material": 1,
          "mode": 4
        }
      ]
    }
  ],
  "nodes": [
    {
      "mesh": 0
    },
    {
      "mesh": 1
    }
  ],
  "samplers": [
    {
      "magFilter": 9729,
      "minFilter": 9987,
      "wrapS": 10497,
      "wrapT": 10497
    }
  ],
  "scenes": [
    {
      "nodes": [
        0,
        1
      ]
    }
  ],
  "textures": [
    {
      "sampler": 0,
      "source": 0
    }
  ]
}
